<?xml version="1.0" encoding="UTF-8"?>
<svg width="554px" height="602px" viewBox="0 0 554 602" version="1.1" xmlns="http://www.w3.org/2000/svg" xmlns:xlink="http://www.w3.org/1999/xlink">
    <!-- Generator: Sketch 64 (93537) - https://sketch.com -->
    <title>launchpad-logo-color-white</title>
    <desc>Created with Sketch.</desc>
    <g id="Page-1" stroke="none" stroke-width="1" fill="none" fill-rule="evenodd">
        <path d="M553.501363,598.498637 L553.501363,601.498637 L0.498636984,602.001363 L0.498636984,599.001364 L553.501363,598.498637 Z M278.803776,511 C288.625204,511 294.943885,515.120879 299.202127,521.027473 L299.202127,521.027473 L289.174655,528.788462 C286.427402,525.354396 283.268061,523.156593 278.666413,523.156593 C271.935644,523.156593 267.196633,528.857143 267.196633,535.862637 L267.196633,535.862637 L267.196633,536 C267.196633,543.211538 271.935644,548.843407 278.666413,548.843407 C283.680149,548.843407 286.633446,546.508242 289.518061,543.005495 L289.518061,543.005495 L299.545534,550.148352 C295.012567,556.398352 288.899929,561 278.254325,561 C264.518061,561 253.460369,550.491758 253.460369,536.137363 L253.460369,536.137363 L253.460369,536 C253.460369,521.989011 264.243336,511 278.803776,511 Z M135.756283,511.961538 L135.756283,538.678571 C135.756283,545.615385 139.259031,548.912088 144.616173,548.912088 C149.973316,548.912088 153.476064,545.752747 153.476064,539.021978 L153.476064,539.021978 L153.476064,511.961538 L167.006283,511.961538 L167.006283,538.60989 C167.006283,554.131868 158.146393,560.931319 144.478811,560.931319 C130.811228,560.931319 122.226064,553.994505 122.226064,538.953297 L122.226064,538.953297 L122.226064,511.961538 L135.756283,511.961538 Z M524.651507,511.961538 C541.821837,511.961538 551.780628,521.851648 551.780628,535.725275 L551.780628,535.725275 L551.780628,535.862637 C551.780628,549.736264 541.684474,560.038462 524.376782,560.038462 L524.376782,560.038462 L506.107551,560.038462 L506.107551,511.961538 Z M467.825563,511.618132 L488.292596,560.038462 L474.006882,560.038462 L470.504135,551.453297 L451.960179,551.453297 L448.526113,560.038462 L434.515124,560.038462 L454.982157,511.618132 L467.825563,511.618132 Z M404.406213,511.961538 C416.562806,511.961538 424.392476,518.211538 424.392476,528.857143 L424.392476,528.857143 L424.392476,528.994505 C424.392476,540.326923 415.669949,546.302198 403.7194,546.302198 L403.7194,546.302198 L397.125993,546.302198 L397.125993,560.038462 L383.801817,560.038462 L383.801817,511.961538 Z M331.714884,511.961538 L331.714884,529.956044 L348.816533,529.956044 L348.816533,511.961538 L362.140708,511.961538 L362.140708,560.038462 L348.816533,560.038462 L348.816533,541.769231 L331.714884,541.769231 L331.714884,560.038462 L318.390708,560.038462 L318.390708,511.961538 L331.714884,511.961538 Z M200.480579,511.961538 L220.260799,537.373626 L220.260799,511.961538 L233.447612,511.961538 L233.447612,560.038462 L221.771788,560.038462 L201.236073,533.664835 L201.236073,560.038462 L188.04926,560.038462 L188.04926,511.961538 L200.480579,511.961538 Z M86.4166032,511.618132 L106.883636,560.038462 L92.5979219,560.038462 L89.0951746,551.453297 L70.5512186,551.453297 L67.1171527,560.038462 L53.1061637,560.038462 L73.5731966,511.618132 L86.4166032,511.618132 Z M14.8241758,511.961538 L14.8241758,548.362637 L38.1071429,548.362637 L38.1071429,560.038462 L1.5,560.038462 L1.5,511.961538 L14.8241758,511.961538 Z M524.857551,523.774725 L519.431727,523.774725 L519.431727,548.225275 L524.857551,548.225275 C532.824584,548.225275 538.113046,543.82967 538.113046,536.068681 L538.113046,536.068681 L538.113046,535.931319 C538.113046,528.239011 532.824584,523.774725 524.857551,523.774725 L524.857551,523.774725 Z M461.300838,527.414835 L455.875014,541.082418 L466.657981,541.082418 L461.300838,527.414835 Z M79.8918779,527.414835 L74.4660538,541.082418 L85.2490208,541.082418 L79.8918779,527.414835 Z M403.375993,523.156593 L397.125993,523.156593 L397.125993,535.862637 L403.444674,535.862637 C408.183685,535.862637 411.068301,533.39011 411.068301,529.612637 L411.068301,529.612637 L411.068301,529.475275 C411.068301,525.354396 408.183685,523.156593 403.375993,523.156593 L403.375993,523.156593 Z M252.95,464 L252.95,466.847 L243.785,466.847 L243.785,491.3 L240.665,491.3 L240.665,466.847 L231.5,466.847 L231.5,464 L252.95,464 Z M323.024088,464 L323.024088,466.808 L306.371088,466.808 L306.371088,476.129 L321.269088,476.129 L321.269088,478.937 L306.371088,478.937 L306.371088,488.492 L323.219088,488.492 L323.219088,491.3 L303.290088,491.3 L303.290088,464 L323.024088,464 Z M269.267044,464 L269.267044,476.129 L285.023044,476.129 L285.023044,464 L288.104044,464 L288.104044,491.3 L285.023044,491.3 L285.023044,479.015 L269.267044,479.015 L269.267044,491.3 L266.186044,491.3 L266.186044,464 L269.267044,464 Z M553.5,476 L553.5,479 L338.5,479 L338.5,476 L553.5,476 Z M215,476 L215,479 L0,479 L0,476 L215,476 Z M276,0 C395.845791,0 493,97.1542093 493,217 C493,336.845791 395.845791,434 276,434 C156.154209,434 59,336.845791 59,217 C59,97.1542093 156.154209,0 276,0 Z M276,9 C161.124772,9 68,102.124772 68,217 C68,331.875228 161.124772,425 276,425 C390.875228,425 484,331.875228 484,217 C484,102.124772 390.875228,9 276,9 Z M77.322779,204.671559 C82.93273,207.173508 87.7934678,211.052581 91.4754081,215.879194 C93.9556662,214.986767 96.6303039,214.5 99.4186321,214.5 C112.366714,214.5 122.863208,224.996494 122.863208,237.944575 C122.863208,241.427337 122.103789,244.732727 120.741512,247.704188 C145.581677,254.797248 163.766509,277.668255 163.766509,304.786557 C163.766509,313.192231 162.019363,321.189837 158.868409,328.436035 C168.682708,330.950624 176.982653,337.248212 182.122879,345.682742 C186.196449,342.262824 191.451406,340.20283 197.1875,340.20283 C208.735309,340.20283 218.333113,348.551795 220.273969,359.54278 C225.598067,356.747933 231.659864,355.167453 238.090802,355.167453 C243.448674,355.167453 248.550317,356.2645 253.183359,358.246222 C254.879626,351.045303 259.898109,345.126033 266.532234,342.193665 C265.886854,340.834201 265.525943,339.313611 265.525943,337.708726 C265.525943,333.815741 267.649567,330.418754 270.801573,328.613008 C269.994109,327.532985 269.516509,326.191961 269.516509,324.739387 C269.516509,321.158003 272.419795,318.254717 276.001179,318.254717 C279.582563,318.254717 282.485849,321.158003 282.485849,324.739387 C282.485849,326.191961 282.008249,327.532985 281.201515,328.613993 C284.352791,330.418754 286.476415,333.815741 286.476415,337.708726 C286.476415,339.313611 286.115504,340.834201 285.470418,342.19376 C293.156313,345.591058 298.673799,352.997818 299.371079,361.762444 C305.510517,357.598714 312.918856,355.167453 320.895047,355.167453 C331.23679,355.167453 340.623911,359.254673 347.529196,365.901897 C351.825451,360.572618 358.408973,357.162736 365.788915,357.162736 C366.301443,357.162736 366.81013,357.179182 367.314477,357.211576 C365.390376,353.808703 364.292453,349.877498 364.292453,345.689858 C364.292453,332.741777 374.788947,322.245283 387.737028,322.245283 C391.254525,322.245283 394.591095,323.019925 397.585448,324.407919 C402.940822,309.897422 416.810151,299.508975 433.133156,299.302657 L433.85652,299.300191 C430.191615,291.591514 428.141509,282.965006 428.141509,273.85967 C428.141509,245.003566 448.731668,220.956552 476.02143,215.609181 L476.028302,216.495283 C476.028302,326.691721 386.696438,416.023585 276.5,416.023585 C166.303562,416.023585 76.9716981,326.691721 76.9716981,216.495283 C76.9716981,213.18939 77.0520968,209.902275 77.2110455,206.635787 L77.322779,204.671559 Z M297.712588,293.313679 L291.458715,313.266509 L259.072592,313.266509 L252.81872,293.313679 L297.712588,293.313679 Z M275.938903,105.757075 L311.355177,156.636792 C316.577758,177.517684 319.765432,198.84147 320.881426,220.309572 L333.327934,224.206093 C343.908912,227.518558 350.827324,237.63888 350.106975,248.669783 L350.079102,249.05051 L346.752979,290.052238 L338.88168,272.879388 C335.464636,265.424408 328.500639,260.314785 320.518005,259.191603 L308.43717,259.192075 L298.710229,290.320755 L251.821078,290.320755 L242.09217,259.191075 L233.315666,259.191647 C225.333165,260.31492 218.369307,265.424506 214.952308,272.879388 L207.081008,290.052238 L203.754886,249.05051 C202.848103,237.872431 209.803455,227.556632 220.506054,224.206093 L230.964565,220.932819 C232.023017,199.810111 235.086851,178.824282 240.121055,158.259618 L240.522629,156.636792 L275.938903,105.757075 Z M275.265654,113.717807 L243.242783,158.820661 L242.333601,162.750978 C239.523371,175.030851 237.665003,184.458174 236.758499,191.032947 L236.595597,192.262944 C235.724909,199.11139 235.028364,209.120718 234.50596,222.290929 L234.411967,224.745493 L222.494789,228.327268 C213.376004,231.067971 207.257954,239.592803 207.549079,249.078952 L207.563907,249.453893 L208.965532,278.409092 L209.968194,274.947403 C213.274332,263.532964 223.646944,255.638053 235.497674,255.46208 L235.90224,255.459077 L245.238066,255.459077 L254.814003,286.330189 L266.785701,286.330189 L254.814003,253.421044 L248.054273,235.151239 C244.963181,226.796817 243.380761,217.959713 243.380761,209.051783 C243.380761,200.587052 244.058177,192.136697 245.406142,183.781601 L245.650977,182.308177 L249.667546,158.820661 L275.265654,113.717807 Z M275.586412,164.771382 C270.411688,164.771382 265.543105,166.082121 261.29471,168.389948 C265.026533,166.635186 269.194291,165.654378 273.591129,165.654378 C289.569612,165.654378 302.522733,178.607498 302.522733,194.585981 C302.522733,210.564465 289.569612,223.517585 273.591129,223.517585 C267.409563,223.517585 261.680793,221.578931 256.979792,218.276289 C262.09254,222.326819 268.55702,224.745493 275.586412,224.745493 C292.147805,224.745493 305.573467,211.319831 305.573467,194.758437 C305.573467,178.197044 292.147805,164.771382 275.586412,164.771382 Z M272.82936,170.603774 C259.57386,170.603774 248.828154,181.34948 248.828154,194.60498 C248.828154,207.860481 259.57386,218.606187 272.82936,218.606187 C278.837882,218.606187 284.330723,216.398294 288.540966,212.749799 C284.737659,215.488037 280.070043,217.100952 275.02571,217.100952 C262.236762,217.100952 251.869272,206.733461 251.869272,193.944514 C251.869272,181.155566 262.236762,170.788075 275.02571,170.788075 C275.343415,170.788075 275.659625,170.794473 275.974317,170.807968 C274.945084,170.673266 273.895338,170.603774 272.82936,170.603774 Z M283.483972,172.408162 L283.483972,177.687492 C285.407954,178.663501 287.212728,179.955673 288.821064,181.564009 C293.034799,185.777744 295.07837,191.339845 294.952727,196.861671 C296.817626,189.873205 295.008885,182.108317 289.526503,176.625936 C287.723051,174.822484 285.672607,173.416559 283.483972,172.408162 Z M397.713443,157.356915 L400.057714,162.772474 L405.473273,165.116745 L400.023644,167.426946 L397.713443,172.876575 L395.385494,167.444694 L389.953614,165.116745 L395.385494,162.788796 L397.713443,157.356915 Z M171.747642,131.967191 L175.583721,140.829015 L184.445545,144.665094 L175.52797,148.445423 L171.747642,157.362998 L167.93827,148.474465 L159.049738,144.665094 L167.93827,140.855723 L171.747642,131.967191 Z M306.928066,67.5691796 L309.272337,72.9847385 L314.687896,75.3290094 L309.238267,77.6392103 L306.928066,83.0888393 L304.600117,77.6569584 L299.168236,75.3290094 L304.600117,73.0010605 L306.928066,67.5691796 Z" id="launchpad-logo-color-white" fill="#FFFFFF"></path>
    </g>
</svg>