<?xml version="1.0" encoding="UTF-8"?>
<svg width="423px" height="423px" viewBox="0 0 423 423" version="1.1" xmlns="http://www.w3.org/2000/svg" xmlns:xlink="http://www.w3.org/1999/xlink">
    <!-- Generator: Sketch 64 (93537) - https://sketch.com -->
    <title>launchpad-logo-emblem-dark</title>
    <desc>Created with Sketch.</desc>
    <g id="Page-1" stroke="none" stroke-width="1" fill="none" fill-rule="evenodd">
        <g id="launchpad-logo-emblem-dark">
            <rect id="Rectangle" stroke="#979797" fill="#C1AA5D" x="131.191038" y="95.2759434" width="160.617925" height="230.45283"></rect>
            <path d="M211.5,0 C328.308225,0 423,94.6917754 423,211.5 C423,328.308225 328.308225,423 211.5,423 C94.6917754,423 0,328.308225 0,211.5 C0,94.6917754 94.6917754,0 211.5,0 Z" id="Combined-Shape" fill="#3A3D44"></path>
            <path d="M232.712588,290.313679 L226.458715,310.266509 L194.072592,310.266509 L187.81872,290.313679 L232.712588,290.313679 Z M210.938903,102.757075 L246.355177,153.636792 C251.577758,174.517684 254.765432,195.84147 255.881426,217.309572 L268.327934,221.206093 C278.908912,224.518558 285.827324,234.63888 285.106975,245.669783 L285.079102,246.05051 L281.752979,287.052238 L273.88168,269.879388 C270.464636,262.424408 263.500639,257.314785 255.518005,256.191603 L243.43717,256.192075 L233.710229,287.320755 L186.821078,287.320755 L177.09217,256.191075 L168.315666,256.191647 C160.333165,257.31492 153.369307,262.424506 149.952308,269.879388 L142.081008,287.052238 L138.754886,246.05051 C137.848103,234.872431 144.803455,224.556632 155.506054,221.206093 L165.964565,217.932819 C167.023017,196.810111 170.086851,175.824282 175.121055,155.259618 L175.522629,153.636792 L210.938903,102.757075 Z M210.265654,110.717807 L178.242783,155.820661 L177.333601,159.750978 C174.523371,172.030851 172.665003,181.458174 171.758499,188.032947 L171.595597,189.262944 C170.724909,196.11139 170.028364,206.120718 169.50596,219.290929 L169.411967,221.745493 L157.494789,225.327268 C148.376004,228.067971 142.257954,236.592803 142.549079,246.078952 L142.563907,246.453893 L143.965532,275.409092 L144.968194,271.947403 C148.274332,260.532964 158.646944,252.638053 170.497674,252.46208 L170.90224,252.459077 L180.238066,252.459077 L189.814003,283.330189 L201.785701,283.330189 L189.814003,250.421044 L183.054273,232.151239 C179.963181,223.796817 178.380761,214.959713 178.380761,206.051783 C178.380761,197.587052 179.058177,189.136697 180.406142,180.781601 L180.650977,179.308177 L184.667546,155.820661 L210.265654,110.717807 Z M210.586412,161.771382 C205.411688,161.771382 200.543105,163.082121 196.29471,165.389948 C200.026533,163.635186 204.194291,162.654378 208.591129,162.654378 C224.569612,162.654378 237.522733,175.607498 237.522733,191.585981 C237.522733,207.564465 224.569612,220.517585 208.591129,220.517585 C202.409563,220.517585 196.680793,218.578931 191.979792,215.276289 C197.09254,219.326819 203.55702,221.745493 210.586412,221.745493 C227.147805,221.745493 240.573467,208.319831 240.573467,191.758437 C240.573467,175.197044 227.147805,161.771382 210.586412,161.771382 Z M207.82936,167.603774 C194.57386,167.603774 183.828154,178.34948 183.828154,191.60498 C183.828154,204.860481 194.57386,215.606187 207.82936,215.606187 C213.837882,215.606187 219.330723,213.398294 223.540966,209.749799 C219.737659,212.488037 215.070043,214.100952 210.02571,214.100952 C197.236762,214.100952 186.869272,203.733461 186.869272,190.944514 C186.869272,178.155566 197.236762,167.788075 210.02571,167.788075 C210.343415,167.788075 210.659625,167.794473 210.974317,167.807968 C209.945084,167.673266 208.895338,167.603774 207.82936,167.603774 Z M218.483972,169.408162 L218.483972,174.687492 C220.407954,175.663501 222.212728,176.955673 223.821064,178.564009 C228.034799,182.777744 230.07837,188.339845 229.952727,193.861671 C231.817626,186.873205 230.008885,179.108317 224.526503,173.625936 C222.723051,171.822484 220.672607,170.416559 218.483972,169.408162 Z" id="Shape" fill="#C1AA5D"></path>
            <path d="M12.322779,201.671559 C17.93273,204.173508 22.7934678,208.052581 26.4754081,212.879194 C28.9556662,211.986767 31.6303039,211.5 34.4186321,211.5 C47.3667136,211.5 57.8632075,221.996494 57.8632075,234.944575 C57.8632075,238.427337 57.1037895,241.732727 55.7415115,244.704188 C80.5816774,251.797248 98.7665094,274.668255 98.7665094,301.786557 C98.7665094,310.192231 97.0193626,318.189837 93.8684087,325.436035 C103.682708,327.950624 111.982653,334.248212 117.122879,342.682742 C121.196449,339.262824 126.451406,337.20283 132.1875,337.20283 C143.735309,337.20283 153.333113,345.551795 155.273969,356.54278 C160.598067,353.747933 166.659864,352.167453 173.090802,352.167453 C178.448674,352.167453 183.550317,353.2645 188.183359,355.246222 C189.879626,348.045303 194.898109,342.126033 201.532234,339.193665 C200.886854,337.834201 200.525943,336.313611 200.525943,334.708726 C200.525943,330.815741 202.649567,327.418754 205.801573,325.613008 C204.994109,324.532985 204.516509,323.191961 204.516509,321.739387 C204.516509,318.158003 207.419795,315.254717 211.001179,315.254717 C214.582563,315.254717 217.485849,318.158003 217.485849,321.739387 C217.485849,323.191961 217.008249,324.532985 216.201515,325.613993 C219.352791,327.418754 221.476415,330.815741 221.476415,334.708726 C221.476415,336.313611 221.115504,337.834201 220.470418,339.19376 C228.156313,342.591058 233.673799,349.997818 234.371079,358.762444 C240.510517,354.598714 247.918856,352.167453 255.895047,352.167453 C266.23679,352.167453 275.623911,356.254673 282.529196,362.901897 C286.825451,357.572618 293.408973,354.162736 300.788915,354.162736 C301.301443,354.162736 301.81013,354.179182 302.314477,354.211576 C300.390376,350.808703 299.292453,346.877498 299.292453,342.689858 C299.292453,329.741777 309.788947,319.245283 322.737028,319.245283 C326.254525,319.245283 329.591095,320.019925 332.585448,321.407919 C337.940822,306.897422 351.810151,296.508975 368.133156,296.302657 L368.85652,296.300191 C365.191615,288.591514 363.141509,279.965006 363.141509,270.85967 C363.141509,242.003566 383.731668,217.956552 411.02143,212.609181 L411.028302,213.495283 C411.028302,323.691721 321.696438,413.023585 211.5,413.023585 C101.303562,413.023585 11.9716981,323.691721 11.9716981,213.495283 C11.9716981,210.18939 12.0520968,206.902275 12.2110455,203.635787 L12.322779,201.671559 Z M332.713443,154.356915 L335.057714,159.772474 L340.473273,162.116745 L335.023644,164.426946 L332.713443,169.876575 L330.385494,164.444694 L324.953614,162.116745 L330.385494,159.788796 L332.713443,154.356915 Z M106.747642,128.967191 L110.583721,137.829015 L119.445545,141.665094 L110.52797,145.445423 L106.747642,154.362998 L102.93827,145.474465 L94.0497381,141.665094 L102.93827,137.855723 L106.747642,128.967191 Z M241.928066,64.5691796 L244.272337,69.9847385 L249.687896,72.3290094 L244.238267,74.6392103 L241.928066,80.0888393 L239.600117,74.6569584 L234.168236,72.3290094 L239.600117,70.0010605 L241.928066,64.5691796 Z" id="Combined-Shape" fill="#DEDED2"></path>
        </g>
    </g>
</svg>