<?xml version="1.0" encoding="UTF-8"?>
<svg width="554px" height="602px" viewBox="0 0 554 602" version="1.1" xmlns="http://www.w3.org/2000/svg" xmlns:xlink="http://www.w3.org/1999/xlink">
    <!-- Generator: Sketch 64 (93537) - https://sketch.com -->
    <title>launchpad-logo-color-light</title>
    <desc>Created with Sketch.</desc>
    <g id="Page-1" stroke="none" stroke-width="1" fill="none" fill-rule="evenodd">
        <g id="launchpad-logo-color-light" transform="translate(1.000000, 0.000000)">
            <g id="Group" transform="translate(58.000000, 0.000000)">
                <path d="M217.5,3 C334.308225,3 429,97.6917754 429,214.5 C429,331.308225 334.308225,426 217.5,426 C100.691775,426 6,331.308225 6,214.5 C6,97.6917754 100.691775,3 217.5,3 Z" id="Combined-Shape" fill="#3A3D44"></path>
                <path d="M238.712588,293.313679 L232.458715,313.266509 L200.072592,313.266509 L193.81872,293.313679 L238.712588,293.313679 Z M216.938903,105.757075 L252.355177,156.636792 C257.577758,177.517684 260.765432,198.84147 261.881426,220.309572 L274.327934,224.206093 C284.908912,227.518558 291.827324,237.63888 291.106975,248.669783 L291.079102,249.05051 L287.752979,290.052238 L279.88168,272.879388 C276.464636,265.424408 269.500639,260.314785 261.518005,259.191603 L249.43717,259.192075 L239.710229,290.320755 L192.821078,290.320755 L183.09217,259.191075 L174.315666,259.191647 C166.333165,260.31492 159.369307,265.424506 155.952308,272.879388 L148.081008,290.052238 L144.754886,249.05051 C143.848103,237.872431 150.803455,227.556632 161.506054,224.206093 L171.964565,220.932819 C173.023017,199.810111 176.086851,178.824282 181.121055,158.259618 L181.522629,156.636792 L216.938903,105.757075 Z M216.265654,113.717807 L184.242783,158.820661 C180.858181,173.304085 178.678281,184.17725 177.703082,191.440156 C176.745942,198.568564 175.992535,209.394981 175.442862,223.919406 L175.411967,224.745493 L163.494789,228.327268 C154.376004,231.067971 148.257954,239.592803 148.549079,249.078952 L148.563907,249.453893 L149.965532,278.409092 L150.968194,274.947403 C154.274332,263.532964 164.646944,255.638053 176.497674,255.46208 L176.90224,255.459077 L186.238066,255.459077 L195.814003,286.330189 L207.785701,286.330189 L195.814003,253.421044 L189.054273,235.151239 C185.963181,226.796817 184.380761,217.959713 184.380761,209.051783 C184.380761,200.587052 185.058177,192.136697 186.406142,183.781601 L186.650977,182.308177 L190.667546,158.820661 L216.265654,113.717807 Z M216.586412,164.771382 C211.411688,164.771382 206.543105,166.082121 202.29471,168.389948 C206.026533,166.635186 210.194291,165.654378 214.591129,165.654378 C230.569612,165.654378 243.522733,178.607498 243.522733,194.585981 C243.522733,210.564465 230.569612,223.517585 214.591129,223.517585 C208.409563,223.517585 202.680793,221.578931 197.979792,218.276289 C203.09254,222.326819 209.55702,224.745493 216.586412,224.745493 C233.147805,224.745493 246.573467,211.319831 246.573467,194.758437 C246.573467,178.197044 233.147805,164.771382 216.586412,164.771382 Z M213.82936,170.603774 C200.57386,170.603774 189.828154,181.34948 189.828154,194.60498 C189.828154,207.860481 200.57386,218.606187 213.82936,218.606187 C219.837882,218.606187 225.330723,216.398294 229.540966,212.749799 C225.737659,215.488037 221.070043,217.100952 216.02571,217.100952 C203.236762,217.100952 192.869272,206.733461 192.869272,193.944514 C192.869272,181.155566 203.236762,170.788075 216.02571,170.788075 C216.343415,170.788075 216.659625,170.794473 216.974317,170.807968 C215.945084,170.673266 214.895338,170.603774 213.82936,170.603774 Z M224.484058,172.408162 L224.483972,177.687492 C226.407954,178.663501 228.212728,179.955673 229.821064,181.564009 C234.034799,185.777744 236.07837,191.339845 235.952727,196.861671 C237.817626,189.873205 236.008885,182.108317 230.526503,176.625936 C228.723051,174.822484 226.672607,173.416559 224.484058,172.408162 Z" id="Combined-Shape" fill="#C1AA5D"></path>
                <path d="M217,0 C336.845791,0 434,97.1542093 434,217 C434,336.845791 336.845791,434 217,434 C97.1542093,434 0,336.845791 0,217 C0,97.1542093 97.1542093,0 217,0 Z M217,9 C102.124772,9 9,102.124772 9,217 C9,331.875228 102.124772,425 217,425 C331.875228,425 425,331.875228 425,217 C425,102.124772 331.875228,9 217,9 Z M18.322779,204.671559 C23.93273,207.173508 28.7934678,211.052581 32.4754081,215.879194 C34.9556662,214.986767 37.6303039,214.5 40.4186321,214.5 C53.3667136,214.5 63.8632075,224.996494 63.8632075,237.944575 C63.8632075,241.427337 63.1037895,244.732727 61.7415115,247.704188 C86.5816774,254.797248 104.766509,277.668255 104.766509,304.786557 C104.766509,313.192231 103.019363,321.189837 99.8684087,328.436035 C109.682708,330.950624 117.982653,337.248212 123.122879,345.682742 C127.196449,342.262824 132.451406,340.20283 138.1875,340.20283 C149.735309,340.20283 159.333113,348.551795 161.273969,359.54278 C166.598067,356.747933 172.659864,355.167453 179.090802,355.167453 C184.448674,355.167453 189.550317,356.2645 194.183359,358.246222 C195.879626,351.045303 200.898109,345.126033 207.532234,342.193665 C206.886854,340.834201 206.525943,339.313611 206.525943,337.708726 C206.525943,333.815741 208.649567,330.418754 211.801573,328.613008 C210.994109,327.532985 210.516509,326.191961 210.516509,324.739387 C210.516509,321.158003 213.419795,318.254717 217.001179,318.254717 C220.582563,318.254717 223.485849,321.158003 223.485849,324.739387 C223.485849,326.191961 223.008249,327.532985 222.201515,328.613993 C225.352791,330.418754 227.476415,333.815741 227.476415,337.708726 C227.476415,339.313611 227.115504,340.834201 226.470418,342.19376 C234.156313,345.591058 239.673799,352.997818 240.371079,361.762444 C246.510517,357.598714 253.918856,355.167453 261.895047,355.167453 C272.23679,355.167453 281.623911,359.254673 288.529196,365.901897 C292.825451,360.572618 299.408973,357.162736 306.788915,357.162736 C307.301443,357.162736 307.81013,357.179182 308.314477,357.211576 C306.390376,353.808703 305.292453,349.877498 305.292453,345.689858 C305.292453,332.741777 315.788947,322.245283 328.737028,322.245283 C332.254525,322.245283 335.591095,323.019925 338.585448,324.407919 C343.940822,309.897422 357.810151,299.508975 374.133156,299.302657 L374.85652,299.300191 C371.191615,291.591514 369.141509,282.965006 369.141509,273.85967 C369.141509,245.003566 389.731668,220.956552 417.02143,215.609181 L417.028302,216.495283 C417.028302,326.691721 327.696438,416.023585 217.5,416.023585 C107.303562,416.023585 17.9716981,326.691721 17.9716981,216.495283 C17.9716981,213.18939 18.0520968,209.902275 18.2110455,206.635787 L18.322779,204.671559 Z M338.713443,157.356915 L341.057714,162.772474 L346.473273,165.116745 L341.023644,167.426946 L338.713443,172.876575 L336.385494,167.444694 L330.953614,165.116745 L336.385494,162.788796 L338.713443,157.356915 Z M112.747642,131.967191 L116.583721,140.829015 L125.445545,144.665094 L116.52797,148.445423 L112.747642,157.362998 L108.93827,148.474465 L100.049738,144.665094 L108.93827,140.855723 L112.747642,131.967191 Z M247.928066,67.5691796 L250.272337,72.9847385 L255.687896,75.3290094 L250.238267,77.6392103 L247.928066,83.0888393 L245.600117,77.6569584 L240.168236,75.3290094 L245.600117,73.0010605 L247.928066,67.5691796 Z" id="Shape" fill="#DEDED2" fill-rule="nonzero"></path>
            </g>
            <g id="Group-2" transform="translate(0.000000, 464.000000)" fill="#DEDED2" fill-rule="nonzero">
                <path d="M37.1071429,96.0384615 L37.1071429,84.3626374 L13.8241758,84.3626374 L13.8241758,47.9615385 L0.5,47.9615385 L0.5,96.0384615 L37.1071429,96.0384615 Z M66.1171527,96.0384615 L69.5512186,87.4532967 L88.0951746,87.4532967 L91.5979219,96.0384615 L105.883636,96.0384615 L85.4166032,47.6181319 L72.5731966,47.6181319 L52.1061637,96.0384615 L66.1171527,96.0384615 Z M84.2490208,77.0824176 L73.4660538,77.0824176 L78.8918779,63.4148352 L84.2490208,77.0824176 Z M143.478811,96.9313187 C157.146393,96.9313187 166.006283,90.1318681 166.006283,74.6098901 L166.006283,47.9615385 L152.476064,47.9615385 L152.476064,75.021978 C152.476064,81.7527473 148.973316,84.9120879 143.616173,84.9120879 C138.259031,84.9120879 134.756283,81.6153846 134.756283,74.6785714 L134.756283,47.9615385 L121.226064,47.9615385 L121.226064,74.9532967 C121.226064,89.9945055 129.811228,96.9313187 143.478811,96.9313187 Z M200.236073,96.0384615 L200.236073,69.6648352 L220.771788,96.0384615 L232.447612,96.0384615 L232.447612,47.9615385 L219.260799,47.9615385 L219.260799,73.3736264 L199.480579,47.9615385 L187.04926,47.9615385 L187.04926,96.0384615 L200.236073,96.0384615 Z M277.254325,97 C287.899929,97 294.012567,92.3983516 298.545534,86.1483516 L288.518061,79.0054945 C285.633446,82.5082418 282.680149,84.8434066 277.666413,84.8434066 C270.935644,84.8434066 266.196633,79.2115385 266.196633,72 L266.196633,71.8626374 C266.196633,64.8571429 270.935644,59.1565934 277.666413,59.1565934 C282.268061,59.1565934 285.427402,61.3543956 288.174655,64.7884615 L298.202127,57.0274725 C293.943885,51.1208791 287.625204,47 277.803776,47 C263.243336,47 252.460369,57.989011 252.460369,72 L252.460369,72.1373626 C252.460369,86.4917582 263.518061,97 277.254325,97 Z M330.714884,96.0384615 L330.714884,77.7692308 L347.816533,77.7692308 L347.816533,96.0384615 L361.140708,96.0384615 L361.140708,47.9615385 L347.816533,47.9615385 L347.816533,65.956044 L330.714884,65.956044 L330.714884,47.9615385 L317.390708,47.9615385 L317.390708,96.0384615 L330.714884,96.0384615 Z M396.125993,96.0384615 L396.125993,82.3021978 L402.7194,82.3021978 C414.669949,82.3021978 423.392476,76.3269231 423.392476,64.9945055 L423.392476,64.8571429 C423.392476,54.2115385 415.562806,47.9615385 403.406213,47.9615385 L382.801817,47.9615385 L382.801817,96.0384615 L396.125993,96.0384615 Z M402.444674,71.8626374 L396.125993,71.8626374 L396.125993,59.1565934 L402.375993,59.1565934 C407.183685,59.1565934 410.068301,61.3543956 410.068301,65.4752747 L410.068301,65.6126374 C410.068301,69.3901099 407.183685,71.8626374 402.444674,71.8626374 Z M447.526113,96.0384615 L450.960179,87.4532967 L469.504135,87.4532967 L473.006882,96.0384615 L487.292596,96.0384615 L466.825563,47.6181319 L453.982157,47.6181319 L433.515124,96.0384615 L447.526113,96.0384615 Z M465.657981,77.0824176 L454.875014,77.0824176 L460.300838,63.4148352 L465.657981,77.0824176 Z M523.376782,96.0384615 C540.684474,96.0384615 550.780628,85.7362637 550.780628,71.8626374 L550.780628,71.7252747 C550.780628,57.8516484 540.821837,47.9615385 523.651507,47.9615385 L505.107551,47.9615385 L505.107551,96.0384615 L523.376782,96.0384615 Z M523.857551,84.2252747 L518.431727,84.2252747 L518.431727,59.7747253 L523.857551,59.7747253 C531.824584,59.7747253 537.113046,64.239011 537.113046,71.9313187 L537.113046,72.0686813 C537.113046,79.8296703 531.824584,84.2252747 523.857551,84.2252747 Z" id="LAUNCHPAD"></path>
                <path d="M242.785,27.3 L242.785,2.847 L251.95,2.847 L251.95,1.13686838e-13 L230.5,1.13686838e-13 L230.5,2.847 L239.665,2.847 L239.665,27.3 L242.785,27.3 Z M268.267044,27.3 L268.267044,15.015 L284.023044,15.015 L284.023044,27.3 L287.104044,27.3 L287.104044,1.13686838e-13 L284.023044,1.13686838e-13 L284.023044,12.129 L268.267044,12.129 L268.267044,1.13686838e-13 L265.186044,1.13686838e-13 L265.186044,27.3 L268.267044,27.3 Z M322.219088,27.3 L322.219088,24.492 L305.371088,24.492 L305.371088,14.937 L320.269088,14.937 L320.269088,12.129 L305.371088,12.129 L305.371088,2.808 L322.024088,2.808 L322.024088,1.13686838e-13 L302.290088,1.13686838e-13 L302.290088,27.3 L322.219088,27.3 Z" id="THE"></path>
                <polygon id="Line" points="552.5 12 552.5 15 337.5 15 337.5 12"></polygon>
                <polygon id="Line-Copy-2" points="552.498636 134.498637 552.501363 137.498636 -0.498635744 138.001363 -0.501363016 135.001364"></polygon>
                <polygon id="Line-Copy" points="214 12 214 15 -1 15 -1 12"></polygon>
            </g>
        </g>
    </g>
</svg>