<?xml version="1.0" encoding="UTF-8"?>
<svg width="554px" height="599px" viewBox="0 0 554 599" version="1.1" xmlns="http://www.w3.org/2000/svg" xmlns:xlink="http://www.w3.org/1999/xlink">
    <!-- Generator: Sketch 64 (93537) - https://sketch.com -->
    <title>launchpad-logo-color-dark</title>
    <desc>Created with Sketch.</desc>
    <g id="Page-1" stroke="none" stroke-width="1" fill="none" fill-rule="evenodd">
        <g id="launchpad-logo-color-dark" transform="translate(1.000000, 0.000000)">
            <g id="Group" transform="translate(64.000000, 0.000000)">
                <rect id="Rectangle" stroke="#979797" fill="#C1AA5D" x="131.191038" y="95.2759434" width="160.617925" height="230.45283"></rect>
                <path d="M211.5,0 C328.308225,0 423,94.6917754 423,211.5 C423,328.308225 328.308225,423 211.5,423 C94.6917754,423 0,328.308225 0,211.5 C0,94.6917754 94.6917754,0 211.5,0 Z" id="Combined-Shape" fill="#3A3D44"></path>
                <path d="M232.712588,290.313679 L226.458715,310.266509 L194.072592,310.266509 L187.81872,290.313679 L232.712588,290.313679 Z M210.938903,102.757075 L246.355177,153.636792 C251.577758,174.517684 254.765432,195.84147 255.881426,217.309572 L268.327934,221.206093 C278.908912,224.518558 285.827324,234.63888 285.106975,245.669783 L285.079102,246.05051 L281.752979,287.052238 L273.88168,269.879388 C270.464636,262.424408 263.500639,257.314785 255.518005,256.191603 L243.43717,256.192075 L233.710229,287.320755 L186.821078,287.320755 L177.09217,256.191075 L168.315666,256.191647 C160.333165,257.31492 153.369307,262.424506 149.952308,269.879388 L142.081008,287.052238 L138.754886,246.05051 C137.848103,234.872431 144.803455,224.556632 155.506054,221.206093 L165.964565,217.932819 C167.023017,196.810111 170.086851,175.824282 175.121055,155.259618 L175.522629,153.636792 L210.938903,102.757075 Z M210.265654,110.717807 L178.242783,155.820661 L177.333601,159.750978 C174.523371,172.030851 172.665003,181.458174 171.758499,188.032947 L171.595597,189.262944 C170.724909,196.11139 170.028364,206.120718 169.50596,219.290929 L169.411967,221.745493 L157.494789,225.327268 C148.376004,228.067971 142.257954,236.592803 142.549079,246.078952 L142.563907,246.453893 L143.965532,275.409092 L144.968194,271.947403 C148.274332,260.532964 158.646944,252.638053 170.497674,252.46208 L170.90224,252.459077 L180.238066,252.459077 L189.814003,283.330189 L201.785701,283.330189 L189.814003,250.421044 L183.054273,232.151239 C179.963181,223.796817 178.380761,214.959713 178.380761,206.051783 C178.380761,197.587052 179.058177,189.136697 180.406142,180.781601 L180.650977,179.308177 L184.667546,155.820661 L210.265654,110.717807 Z M210.586412,161.771382 C205.411688,161.771382 200.543105,163.082121 196.29471,165.389948 C200.026533,163.635186 204.194291,162.654378 208.591129,162.654378 C224.569612,162.654378 237.522733,175.607498 237.522733,191.585981 C237.522733,207.564465 224.569612,220.517585 208.591129,220.517585 C202.409563,220.517585 196.680793,218.578931 191.979792,215.276289 C197.09254,219.326819 203.55702,221.745493 210.586412,221.745493 C227.147805,221.745493 240.573467,208.319831 240.573467,191.758437 C240.573467,175.197044 227.147805,161.771382 210.586412,161.771382 Z M207.82936,167.603774 C194.57386,167.603774 183.828154,178.34948 183.828154,191.60498 C183.828154,204.860481 194.57386,215.606187 207.82936,215.606187 C213.837882,215.606187 219.330723,213.398294 223.540966,209.749799 C219.737659,212.488037 215.070043,214.100952 210.02571,214.100952 C197.236762,214.100952 186.869272,203.733461 186.869272,190.944514 C186.869272,178.155566 197.236762,167.788075 210.02571,167.788075 C210.343415,167.788075 210.659625,167.794473 210.974317,167.807968 C209.945084,167.673266 208.895338,167.603774 207.82936,167.603774 Z M218.483972,169.408162 L218.483972,174.687492 C220.407954,175.663501 222.212728,176.955673 223.821064,178.564009 C228.034799,182.777744 230.07837,188.339845 229.952727,193.861671 C231.817626,186.873205 230.008885,179.108317 224.526503,173.625936 C222.723051,171.822484 220.672607,170.416559 218.483972,169.408162 Z" id="Shape" fill="#C1AA5D"></path>
                <path d="M12.322779,201.671559 C17.93273,204.173508 22.7934678,208.052581 26.4754081,212.879194 C28.9556662,211.986767 31.6303039,211.5 34.4186321,211.5 C47.3667136,211.5 57.8632075,221.996494 57.8632075,234.944575 C57.8632075,238.427337 57.1037895,241.732727 55.7415115,244.704188 C80.5816774,251.797248 98.7665094,274.668255 98.7665094,301.786557 C98.7665094,310.192231 97.0193626,318.189837 93.8684087,325.436035 C103.682708,327.950624 111.982653,334.248212 117.122879,342.682742 C121.196449,339.262824 126.451406,337.20283 132.1875,337.20283 C143.735309,337.20283 153.333113,345.551795 155.273969,356.54278 C160.598067,353.747933 166.659864,352.167453 173.090802,352.167453 C178.448674,352.167453 183.550317,353.2645 188.183359,355.246222 C189.879626,348.045303 194.898109,342.126033 201.532234,339.193665 C200.886854,337.834201 200.525943,336.313611 200.525943,334.708726 C200.525943,330.815741 202.649567,327.418754 205.801573,325.613008 C204.994109,324.532985 204.516509,323.191961 204.516509,321.739387 C204.516509,318.158003 207.419795,315.254717 211.001179,315.254717 C214.582563,315.254717 217.485849,318.158003 217.485849,321.739387 C217.485849,323.191961 217.008249,324.532985 216.201515,325.613993 C219.352791,327.418754 221.476415,330.815741 221.476415,334.708726 C221.476415,336.313611 221.115504,337.834201 220.470418,339.19376 C228.156313,342.591058 233.673799,349.997818 234.371079,358.762444 C240.510517,354.598714 247.918856,352.167453 255.895047,352.167453 C266.23679,352.167453 275.623911,356.254673 282.529196,362.901897 C286.825451,357.572618 293.408973,354.162736 300.788915,354.162736 C301.301443,354.162736 301.81013,354.179182 302.314477,354.211576 C300.390376,350.808703 299.292453,346.877498 299.292453,342.689858 C299.292453,329.741777 309.788947,319.245283 322.737028,319.245283 C326.254525,319.245283 329.591095,320.019925 332.585448,321.407919 C337.940822,306.897422 351.810151,296.508975 368.133156,296.302657 L368.85652,296.300191 C365.191615,288.591514 363.141509,279.965006 363.141509,270.85967 C363.141509,242.003566 383.731668,217.956552 411.02143,212.609181 L411.028302,213.495283 C411.028302,323.691721 321.696438,413.023585 211.5,413.023585 C101.303562,413.023585 11.9716981,323.691721 11.9716981,213.495283 C11.9716981,210.18939 12.0520968,206.902275 12.2110455,203.635787 L12.322779,201.671559 Z M332.713443,154.356915 L335.057714,159.772474 L340.473273,162.116745 L335.023644,164.426946 L332.713443,169.876575 L330.385494,164.444694 L324.953614,162.116745 L330.385494,159.788796 L332.713443,154.356915 Z M106.747642,128.967191 L110.583721,137.829015 L119.445545,141.665094 L110.52797,145.445423 L106.747642,154.362998 L102.93827,145.474465 L94.0497381,141.665094 L102.93827,137.855723 L106.747642,128.967191 Z M241.928066,64.5691796 L244.272337,69.9847385 L249.687896,72.3290094 L244.238267,74.6392103 L241.928066,80.0888393 L239.600117,74.6569584 L234.168236,72.3290094 L239.600117,70.0010605 L241.928066,64.5691796 Z" id="Combined-Shape" fill="#DEDED2"></path>
            </g>
            <g id="Group-2" transform="translate(0.000000, 461.000000)" fill="#3A3D44" fill-rule="nonzero">
                <path d="M37.1071429,96.0384615 L37.1071429,84.3626374 L13.8241758,84.3626374 L13.8241758,47.9615385 L0.5,47.9615385 L0.5,96.0384615 L37.1071429,96.0384615 Z M66.1171527,96.0384615 L69.5512186,87.4532967 L88.0951746,87.4532967 L91.5979219,96.0384615 L105.883636,96.0384615 L85.4166032,47.6181319 L72.5731966,47.6181319 L52.1061637,96.0384615 L66.1171527,96.0384615 Z M84.2490208,77.0824176 L73.4660538,77.0824176 L78.8918779,63.4148352 L84.2490208,77.0824176 Z M143.478811,96.9313187 C157.146393,96.9313187 166.006283,90.1318681 166.006283,74.6098901 L166.006283,47.9615385 L152.476064,47.9615385 L152.476064,75.021978 C152.476064,81.7527473 148.973316,84.9120879 143.616173,84.9120879 C138.259031,84.9120879 134.756283,81.6153846 134.756283,74.6785714 L134.756283,47.9615385 L121.226064,47.9615385 L121.226064,74.9532967 C121.226064,89.9945055 129.811228,96.9313187 143.478811,96.9313187 Z M200.236073,96.0384615 L200.236073,69.6648352 L220.771788,96.0384615 L232.447612,96.0384615 L232.447612,47.9615385 L219.260799,47.9615385 L219.260799,73.3736264 L199.480579,47.9615385 L187.04926,47.9615385 L187.04926,96.0384615 L200.236073,96.0384615 Z M277.254325,97 C287.899929,97 294.012567,92.3983516 298.545534,86.1483516 L288.518061,79.0054945 C285.633446,82.5082418 282.680149,84.8434066 277.666413,84.8434066 C270.935644,84.8434066 266.196633,79.2115385 266.196633,72 L266.196633,71.8626374 C266.196633,64.8571429 270.935644,59.1565934 277.666413,59.1565934 C282.268061,59.1565934 285.427402,61.3543956 288.174655,64.7884615 L298.202127,57.0274725 C293.943885,51.1208791 287.625204,47 277.803776,47 C263.243336,47 252.460369,57.989011 252.460369,72 L252.460369,72.1373626 C252.460369,86.4917582 263.518061,97 277.254325,97 Z M330.714884,96.0384615 L330.714884,77.7692308 L347.816533,77.7692308 L347.816533,96.0384615 L361.140708,96.0384615 L361.140708,47.9615385 L347.816533,47.9615385 L347.816533,65.956044 L330.714884,65.956044 L330.714884,47.9615385 L317.390708,47.9615385 L317.390708,96.0384615 L330.714884,96.0384615 Z M396.125993,96.0384615 L396.125993,82.3021978 L402.7194,82.3021978 C414.669949,82.3021978 423.392476,76.3269231 423.392476,64.9945055 L423.392476,64.8571429 C423.392476,54.2115385 415.562806,47.9615385 403.406213,47.9615385 L382.801817,47.9615385 L382.801817,96.0384615 L396.125993,96.0384615 Z M402.444674,71.8626374 L396.125993,71.8626374 L396.125993,59.1565934 L402.375993,59.1565934 C407.183685,59.1565934 410.068301,61.3543956 410.068301,65.4752747 L410.068301,65.6126374 C410.068301,69.3901099 407.183685,71.8626374 402.444674,71.8626374 Z M447.526113,96.0384615 L450.960179,87.4532967 L469.504135,87.4532967 L473.006882,96.0384615 L487.292596,96.0384615 L466.825563,47.6181319 L453.982157,47.6181319 L433.515124,96.0384615 L447.526113,96.0384615 Z M465.657981,77.0824176 L454.875014,77.0824176 L460.300838,63.4148352 L465.657981,77.0824176 Z M523.376782,96.0384615 C540.684474,96.0384615 550.780628,85.7362637 550.780628,71.8626374 L550.780628,71.7252747 C550.780628,57.8516484 540.821837,47.9615385 523.651507,47.9615385 L505.107551,47.9615385 L505.107551,96.0384615 L523.376782,96.0384615 Z M523.857551,84.2252747 L518.431727,84.2252747 L518.431727,59.7747253 L523.857551,59.7747253 C531.824584,59.7747253 537.113046,64.239011 537.113046,71.9313187 L537.113046,72.0686813 C537.113046,79.8296703 531.824584,84.2252747 523.857551,84.2252747 Z" id="LAUNCHPAD"></path>
                <path d="M242.785,27.3 L242.785,2.847 L251.95,2.847 L251.95,1.13686838e-13 L230.5,1.13686838e-13 L230.5,2.847 L239.665,2.847 L239.665,27.3 L242.785,27.3 Z M268.267044,27.3 L268.267044,15.015 L284.023044,15.015 L284.023044,27.3 L287.104044,27.3 L287.104044,1.13686838e-13 L284.023044,1.13686838e-13 L284.023044,12.129 L268.267044,12.129 L268.267044,1.13686838e-13 L265.186044,1.13686838e-13 L265.186044,27.3 L268.267044,27.3 Z M322.219088,27.3 L322.219088,24.492 L305.371088,24.492 L305.371088,14.937 L320.269088,14.937 L320.269088,12.129 L305.371088,12.129 L305.371088,2.808 L322.024088,2.808 L322.024088,1.13686838e-13 L302.290088,1.13686838e-13 L302.290088,27.3 L322.219088,27.3 Z" id="THE"></path>
                <polygon id="Line" points="552.5 12 552.5 15 337.5 15 337.5 12"></polygon>
                <polygon id="Line-Copy-2" points="552.498636 134.498637 552.501363 137.498636 -0.498635744 138.001363 -0.501363016 135.001364"></polygon>
                <polygon id="Line-Copy" points="214 12 214 15 -1 15 -1 12"></polygon>
            </g>
        </g>
    </g>
</svg>