<?xml version="1.0" encoding="UTF-8"?>
<svg width="554px" height="138px" viewBox="0 0 554 138" version="1.1" xmlns="http://www.w3.org/2000/svg" xmlns:xlink="http://www.w3.org/1999/xlink">
    <!-- Generator: Sketch 64 (93537) - https://sketch.com -->
    <title>launchpad-logo-type-light</title>
    <desc>Created with Sketch.</desc>
    <g id="Page-1" stroke="none" stroke-width="1" fill="none" fill-rule="evenodd">
        <g id="launchpad-logo-type-light" transform="translate(1.000000, 0.000000)" fill="#DEDED2" fill-rule="nonzero">
            <path d="M37.1071429,96.0384615 L37.1071429,84.3626374 L13.8241758,84.3626374 L13.8241758,47.9615385 L0.5,47.9615385 L0.5,96.0384615 L37.1071429,96.0384615 Z M66.1171527,96.0384615 L69.5512186,87.4532967 L88.0951746,87.4532967 L91.5979219,96.0384615 L105.883636,96.0384615 L85.4166032,47.6181319 L72.5731966,47.6181319 L52.1061637,96.0384615 L66.1171527,96.0384615 Z M84.2490208,77.0824176 L73.4660538,77.0824176 L78.8918779,63.4148352 L84.2490208,77.0824176 Z M143.478811,96.9313187 C157.146393,96.9313187 166.006283,90.1318681 166.006283,74.6098901 L166.006283,47.9615385 L152.476064,47.9615385 L152.476064,75.021978 C152.476064,81.7527473 148.973316,84.9120879 143.616173,84.9120879 C138.259031,84.9120879 134.756283,81.6153846 134.756283,74.6785714 L134.756283,47.9615385 L121.226064,47.9615385 L121.226064,74.9532967 C121.226064,89.9945055 129.811228,96.9313187 143.478811,96.9313187 Z M200.236073,96.0384615 L200.236073,69.6648352 L220.771788,96.0384615 L232.447612,96.0384615 L232.447612,47.9615385 L219.260799,47.9615385 L219.260799,73.3736264 L199.480579,47.9615385 L187.04926,47.9615385 L187.04926,96.0384615 L200.236073,96.0384615 Z M277.254325,97 C287.899929,97 294.012567,92.3983516 298.545534,86.1483516 L288.518061,79.0054945 C285.633446,82.5082418 282.680149,84.8434066 277.666413,84.8434066 C270.935644,84.8434066 266.196633,79.2115385 266.196633,72 L266.196633,71.8626374 C266.196633,64.8571429 270.935644,59.1565934 277.666413,59.1565934 C282.268061,59.1565934 285.427402,61.3543956 288.174655,64.7884615 L298.202127,57.0274725 C293.943885,51.1208791 287.625204,47 277.803776,47 C263.243336,47 252.460369,57.989011 252.460369,72 L252.460369,72.1373626 C252.460369,86.4917582 263.518061,97 277.254325,97 Z M330.714884,96.0384615 L330.714884,77.7692308 L347.816533,77.7692308 L347.816533,96.0384615 L361.140708,96.0384615 L361.140708,47.9615385 L347.816533,47.9615385 L347.816533,65.956044 L330.714884,65.956044 L330.714884,47.9615385 L317.390708,47.9615385 L317.390708,96.0384615 L330.714884,96.0384615 Z M396.125993,96.0384615 L396.125993,82.3021978 L402.7194,82.3021978 C414.669949,82.3021978 423.392476,76.3269231 423.392476,64.9945055 L423.392476,64.8571429 C423.392476,54.2115385 415.562806,47.9615385 403.406213,47.9615385 L382.801817,47.9615385 L382.801817,96.0384615 L396.125993,96.0384615 Z M402.444674,71.8626374 L396.125993,71.8626374 L396.125993,59.1565934 L402.375993,59.1565934 C407.183685,59.1565934 410.068301,61.3543956 410.068301,65.4752747 L410.068301,65.6126374 C410.068301,69.3901099 407.183685,71.8626374 402.444674,71.8626374 Z M447.526113,96.0384615 L450.960179,87.4532967 L469.504135,87.4532967 L473.006882,96.0384615 L487.292596,96.0384615 L466.825563,47.6181319 L453.982157,47.6181319 L433.515124,96.0384615 L447.526113,96.0384615 Z M465.657981,77.0824176 L454.875014,77.0824176 L460.300838,63.4148352 L465.657981,77.0824176 Z M523.376782,96.0384615 C540.684474,96.0384615 550.780628,85.7362637 550.780628,71.8626374 L550.780628,71.7252747 C550.780628,57.8516484 540.821837,47.9615385 523.651507,47.9615385 L505.107551,47.9615385 L505.107551,96.0384615 L523.376782,96.0384615 Z M523.857551,84.2252747 L518.431727,84.2252747 L518.431727,59.7747253 L523.857551,59.7747253 C531.824584,59.7747253 537.113046,64.239011 537.113046,71.9313187 L537.113046,72.0686813 C537.113046,79.8296703 531.824584,84.2252747 523.857551,84.2252747 Z" id="LAUNCHPAD"></path>
            <path d="M242.785,27.3 L242.785,2.847 L251.95,2.847 L251.95,1.13686838e-13 L230.5,1.13686838e-13 L230.5,2.847 L239.665,2.847 L239.665,27.3 L242.785,27.3 Z M268.267044,27.3 L268.267044,15.015 L284.023044,15.015 L284.023044,27.3 L287.104044,27.3 L287.104044,1.13686838e-13 L284.023044,1.13686838e-13 L284.023044,12.129 L268.267044,12.129 L268.267044,1.13686838e-13 L265.186044,1.13686838e-13 L265.186044,27.3 L268.267044,27.3 Z M322.219088,27.3 L322.219088,24.492 L305.371088,24.492 L305.371088,14.937 L320.269088,14.937 L320.269088,12.129 L305.371088,12.129 L305.371088,2.808 L322.024088,2.808 L322.024088,1.13686838e-13 L302.290088,1.13686838e-13 L302.290088,27.3 L322.219088,27.3 Z" id="THE"></path>
            <polygon id="Line" points="552.5 12 552.5 15 337.5 15 337.5 12"></polygon>
            <polygon id="Line-Copy-2" points="552.498636 134.498637 552.501363 137.498636 -0.498635744 138.001363 -0.501363016 135.001364"></polygon>
            <polygon id="Line-Copy" points="214 12 214 15 -1 15 -1 12"></polygon>
        </g>
    </g>
</svg>