<?xml version="1.0" encoding="UTF-8"?>
<svg width="554px" height="138px" viewBox="0 0 554 138" version="1.1" xmlns="http://www.w3.org/2000/svg" xmlns:xlink="http://www.w3.org/1999/xlink">
    <!-- Generator: Sketch 64 (93537) - https://sketch.com -->
    <title>launchpad-logo-type-white</title>
    <desc>Created with Sketch.</desc>
    <g id="Page-1" stroke="none" stroke-width="1" fill="none" fill-rule="evenodd">
        <path d="M553.501363,134.498637 L553.501363,137.498637 L0.498636984,138.001363 L0.498636984,135.001364 L553.501363,134.498637 Z M278.803776,47 C288.625204,47 294.943885,51.1208791 299.202127,57.0274725 L299.202127,57.0274725 L289.174655,64.7884615 C286.427402,61.3543956 283.268061,59.1565934 278.666413,59.1565934 C271.935644,59.1565934 267.196633,64.8571429 267.196633,71.8626374 L267.196633,71.8626374 L267.196633,72 C267.196633,79.2115385 271.935644,84.8434066 278.666413,84.8434066 C283.680149,84.8434066 286.633446,82.5082418 289.518061,79.0054945 L289.518061,79.0054945 L299.545534,86.1483516 C295.012567,92.3983516 288.899929,97 278.254325,97 C264.518061,97 253.460369,86.4917582 253.460369,72.1373626 L253.460369,72.1373626 L253.460369,72 C253.460369,57.989011 264.243336,47 278.803776,47 Z M135.756283,47.9615385 L135.756283,74.6785714 C135.756283,81.6153846 139.259031,84.9120879 144.616173,84.9120879 C149.973316,84.9120879 153.476064,81.7527473 153.476064,75.021978 L153.476064,75.021978 L153.476064,47.9615385 L167.006283,47.9615385 L167.006283,74.6098901 C167.006283,90.1318681 158.146393,96.9313187 144.478811,96.9313187 C130.811228,96.9313187 122.226064,89.9945055 122.226064,74.9532967 L122.226064,74.9532967 L122.226064,47.9615385 L135.756283,47.9615385 Z M14.8241758,47.9615385 L14.8241758,84.3626374 L38.1071429,84.3626374 L38.1071429,96.0384615 L1.5,96.0384615 L1.5,47.9615385 L14.8241758,47.9615385 Z M86.4166032,47.6181319 L106.883636,96.0384615 L92.5979219,96.0384615 L89.0951746,87.4532967 L70.5512186,87.4532967 L67.1171527,96.0384615 L53.1061637,96.0384615 L73.5731966,47.6181319 L86.4166032,47.6181319 Z M200.480579,47.9615385 L220.260799,73.3736264 L220.260799,47.9615385 L233.447612,47.9615385 L233.447612,96.0384615 L221.771788,96.0384615 L201.236073,69.6648352 L201.236073,96.0384615 L188.04926,96.0384615 L188.04926,47.9615385 L200.480579,47.9615385 Z M331.714884,47.9615385 L331.714884,65.956044 L348.816533,65.956044 L348.816533,47.9615385 L362.140708,47.9615385 L362.140708,96.0384615 L348.816533,96.0384615 L348.816533,77.7692308 L331.714884,77.7692308 L331.714884,96.0384615 L318.390708,96.0384615 L318.390708,47.9615385 L331.714884,47.9615385 Z M404.406213,47.9615385 C416.562806,47.9615385 424.392476,54.2115385 424.392476,64.8571429 L424.392476,64.8571429 L424.392476,64.9945055 C424.392476,76.3269231 415.669949,82.3021978 403.7194,82.3021978 L403.7194,82.3021978 L397.125993,82.3021978 L397.125993,96.0384615 L383.801817,96.0384615 L383.801817,47.9615385 Z M467.825563,47.6181319 L488.292596,96.0384615 L474.006882,96.0384615 L470.504135,87.4532967 L451.960179,87.4532967 L448.526113,96.0384615 L434.515124,96.0384615 L454.982157,47.6181319 L467.825563,47.6181319 Z M524.651507,47.9615385 C541.821837,47.9615385 551.780628,57.8516484 551.780628,71.7252747 L551.780628,71.7252747 L551.780628,71.8626374 C551.780628,85.7362637 541.684474,96.0384615 524.376782,96.0384615 L524.376782,96.0384615 L506.107551,96.0384615 L506.107551,47.9615385 Z M524.857551,59.7747253 L519.431727,59.7747253 L519.431727,84.2252747 L524.857551,84.2252747 C532.824584,84.2252747 538.113046,79.8296703 538.113046,72.0686813 L538.113046,72.0686813 L538.113046,71.9313187 C538.113046,64.239011 532.824584,59.7747253 524.857551,59.7747253 L524.857551,59.7747253 Z M79.8918779,63.4148352 L74.4660538,77.0824176 L85.2490208,77.0824176 L79.8918779,63.4148352 Z M461.300838,63.4148352 L455.875014,77.0824176 L466.657981,77.0824176 L461.300838,63.4148352 Z M403.375993,59.1565934 L397.125993,59.1565934 L397.125993,71.8626374 L403.444674,71.8626374 C408.183685,71.8626374 411.068301,69.3901099 411.068301,65.6126374 L411.068301,65.6126374 L411.068301,65.4752747 C411.068301,61.3543956 408.183685,59.1565934 403.375993,59.1565934 L403.375993,59.1565934 Z M252.95,1.15463195e-13 L252.95,2.847 L243.785,2.847 L243.785,27.3 L240.665,27.3 L240.665,2.847 L231.5,2.847 L231.5,1.15463195e-13 L252.95,1.15463195e-13 Z M269.267044,1.15463195e-13 L269.267044,12.129 L285.023044,12.129 L285.023044,1.15463195e-13 L288.104044,1.15463195e-13 L288.104044,27.3 L285.023044,27.3 L285.023044,15.015 L269.267044,15.015 L269.267044,27.3 L266.186044,27.3 L266.186044,1.15463195e-13 L269.267044,1.15463195e-13 Z M323.024088,1.15463195e-13 L323.024088,2.808 L306.371088,2.808 L306.371088,12.129 L321.269088,12.129 L321.269088,14.937 L306.371088,14.937 L306.371088,24.492 L323.219088,24.492 L323.219088,27.3 L303.290088,27.3 L303.290088,1.15463195e-13 L323.024088,1.15463195e-13 Z M553.5,12 L553.5,15 L338.5,15 L338.5,12 L553.5,12 Z M215,12 L215,15 L0,15 L0,12 L215,12 Z" id="launchpad-logo-type-white" fill="#FFFFFF" fill-rule="nonzero"></path>
    </g>
</svg>